<?xml version="1.0" encoding="utf-8"?>
<!-- Generator: Adobe Illustrator 27.8.1, SVG Export Plug-In . SVG Version: 6.00 Build 0)  -->
<svg version="1.1" id="Ebene_1" xmlns="http://www.w3.org/2000/svg" xmlns:xlink="http://www.w3.org/1999/xlink" x="0px" y="0px"
	 viewBox="0 0 81 81" style="enable-background:new 0 0 81 81;" xml:space="preserve">
<style type="text/css">
	.st0{fill:#687E8E;}
	.st1{fill:none;stroke:#FFFFFF;stroke-width:1.5;}
	.st2{fill:none;}
</style>
<g id="Gruppe_3072" transform="translate(-637 -3250)">
	<circle id="Ellipse_58" class="st0" cx="677.5" cy="3290.5" r="40"/>
	<path id="Pfad_1583" class="st1" d="M674.4,3307v-27.7c0-2.8-2.3-5.1-5.1-5c0,0,0,0,0,0c-2.5,0-4.7,1.8-5.1,4.3c0,0,0,0,0,0
		c-2.8,0-5.1,2.2-5.1,5c0,0,0,0,0,0c0,0.5,0.1,1,0.2,1.4c-2.3,0.5-4,2.5-4,4.9c0,1.2,0.4,2.3,1.2,3.2c-0.7,0.9-1.2,2-1.2,3.2
		c0,2.4,1.7,4.4,4,4.9c-0.1,0.5-0.2,0.9-0.2,1.4c0,2.8,2.3,5.1,5.1,5c0,0,0,0,0,0c0.4,2.5,2.5,4.3,5.1,4.3
		C672,3312,674.3,3309.8,674.4,3307z M665.3,3288.7c-0.8-2.7-3.6-4.3-6.3-3.6 M664.1,3300.4c0.7-2.7-0.9-5.4-3.6-6.2c0,0,0,0-0.1,0
		 M664.1,3282.1c2.7,0.7,5.5-0.9,6.3-3.6 M667.8,3296.7c-1-2.6,0.4-5.5,3-6.4c0,0,0,0,0.1,0 M664,3307.7c2.8,0,5.1-2.2,5.1-5"/>
	<path id="Pfad_1584" class="st1" d="M678.4,3307v-27.7c0-2.8,2.3-5.1,5.1-5c0,0,0,0,0,0c2.5,0,4.7,1.8,5.1,4.3c0,0,0,0,0,0
		c2.8,0,5.1,2.2,5.1,5c0,0,0,0,0,0c0,0.5-0.1,1-0.2,1.4c2.3,0.5,4,2.5,4,4.9c0,1.2-0.4,2.3-1.2,3.2c0.7,0.9,1.2,2,1.2,3.2
		c0,2.4-1.7,4.4-4,4.9c0.1,0.5,0.2,0.9,0.2,1.4c0,2.8-2.3,5.1-5.1,5c0,0,0,0,0,0c-0.4,2.5-2.5,4.3-5.1,4.3
		C680.8,3312,678.5,3309.8,678.4,3307z M687.5,3288.7c0.8-2.7,3.6-4.3,6.3-3.6 M688.7,3300.4c-0.7-2.7,0.9-5.4,3.6-6.2
		c0,0,0,0,0.1,0 M688.7,3282.1c-2.7,0.7-5.5-0.9-6.3-3.6 M685,3296.7c1-2.6-0.4-5.5-3-6.4c0,0,0,0-0.1,0 M688.8,3307.7
		c-2.8,0-5.1-2.2-5.1-5"/>
	<path id="Pfad_1585" class="st1" d="M696.9,3275v-8.5"/>
	<path id="Pfad_1586" class="st1" d="M700.6,3272.9l-7.4-4.3"/>
	<path id="Pfad_1587" class="st1" d="M700.6,3268.6l-7.4,4.3"/>
	<path id="Pfad_1588" class="st2" d="M654.5,3312.8H701v-46.3h-46.5V3312.8z"/>
</g>
</svg>
