<?xml version="1.0" encoding="utf-8"?>
<!-- Generator: Adobe Illustrator 27.8.1, SVG Export Plug-In . SVG Version: 6.00 Build 0)  -->
<svg version="1.1" id="Ebene_1" xmlns="http://www.w3.org/2000/svg" xmlns:xlink="http://www.w3.org/1999/xlink" x="0px" y="0px"
	 viewBox="0 0 81 81" style="enable-background:new 0 0 81 81;" xml:space="preserve">
<style type="text/css">
	.st0{fill:#687E8E;}
	.st1{fill:none;stroke:#FFFFFF;stroke-width:1.5;}
	.st2{fill:none;}
	.st3{fill:none;stroke:#FFFFFF;stroke-width:2;}
</style>
<g id="Gruppe_3073" transform="translate(-964 -3250)">
	<circle id="Ellipse_60" class="st0" cx="1004.5" cy="3290.5" r="40"/>
	<path id="Pfad_1589" class="st1" d="M1004.7,3290.6c-5,0-9.1,4.1-9.1,9.1l0,0v13.1h18.2v-13.1
		C1013.8,3294.6,1009.7,3290.6,1004.7,3290.6C1004.7,3290.6,1004.7,3290.6,1004.7,3290.6z"/>
	<path id="Pfad_1590" class="st1" d="M1004.7,3290.4c-5,0-9.1-4.1-9.1-9.1l0,0v-13.1h18.2v13.1
		C1013.8,3286.4,1009.7,3290.4,1004.7,3290.4C1004.7,3290.4,1004.7,3290.4,1004.7,3290.4z"/>
	<path id="Pfad_1591" class="st1" d="M990.5,3268.2h28.3"/>
	<path id="Pfad_1592" class="st1" d="M990.5,3268.2h28.3"/>
	<path id="Pfad_1593" class="st2" d="M990.5,3313.5h28.3v-46h-28.3V3313.5z"/>
	<path id="Pfad_1594" class="st1" d="M994.8,3272.4h19.7"/>
	<path id="Pfad_1595" class="st3" d="M1007.1,3297.1h2"/>
	<path id="Pfad_1596" class="st3" d="M999.8,3300.2h2"/>
	<path id="Pfad_1597" class="st3" d="M1003.7,3295.2h2"/>
	<path id="Pfad_1598" class="st1" d="M990.5,3312.8h28.3"/>
	<path id="Pfad_1599" class="st2" d="M990.5,3313.5h28.3v-46h-28.3V3313.5z"/>
	<path id="Pfad_1600" class="st1" d="M994.8,3308.5h19.7"/>
</g>
</svg>
