<?xml version="1.0" encoding="utf-8"?>
<!-- Generator: Adobe Illustrator 27.8.1, SVG Export Plug-In . SVG Version: 6.00 Build 0)  -->
<svg version="1.1" id="Ebene_1" xmlns="http://www.w3.org/2000/svg" xmlns:xlink="http://www.w3.org/1999/xlink" x="0px" y="0px"
	 viewBox="0 0 40 40" style="enable-background:new 0 0 40 40;" xml:space="preserve">
<g id="Gruppe_2503" transform="translate(0 85.039)">
	<g>
		<g id="Gruppe_2490" transform="translate(0 -85.039)">
			<g id="Gruppe_2489" transform="translate(0 0)">
				<path id="Pfad_1519" d="M40,20c0-1.2-1-2.2-2.2-2.2l0,0c-1.2,0-2.2,1-2.2,2.2c0,0,0,0,0,0c0,1.2,1,2.2,2.2,2.2c0,0,0,0,0,0
					C39,22.2,40,21.2,40,20L40,20 M38.9,11.1c0-0.6-0.5-1.1-1.1-1.1l0,0c-0.6,0-1.1,0.5-1.1,1.1c0,0,0,0,0,0c0,0.6,0.5,1.1,1.1,1.1
					C38.4,12.2,38.9,11.7,38.9,11.1C38.9,11.1,38.9,11.1,38.9,11.1 M31.1,28.9c0-1.2-1-2.2-2.2-2.2c0,0,0,0,0,0
					c-1.2,0-2.2,1-2.2,2.2c0,0,0,0,0,0c0,1.2,1,2.2,2.2,2.2C30.1,31.1,31.1,30.1,31.1,28.9 M31.1,20c0-1.2-1-2.2-2.2-2.2v0h-6.7
					v-6.7c0-1.2-1-2.2-2.2-2.2c0,0,0,0,0,0c-1.2,0-2.2,1-2.2,2.2v6.7h-6.7c-1.2,0-2.2,1-2.2,2.2c0,1.2,1,2.2,2.2,2.2h6.7v6.7
					c0,1.2,1,2.2,2.2,2.2c1.2,0,2.2-1,2.2-2.2c0,0,0,0,0,0v-6.7H29v0C30.2,22.2,31.1,21.2,31.1,20 M31.1,11.1c0-1.2-1-2.2-2.2-2.2
					l0,0c-1.2,0-2.2,1-2.2,2.2c0,0,0,0,0,0c0,1.2,1,2.2,2.2,2.2c0,0,0,0,0,0C30.1,13.3,31.1,12.3,31.1,11.1
					C31.1,11.1,31.1,11.1,31.1,11.1 M30,2.2c0-0.6-0.5-1.1-1.1-1.1l0,0c-0.6,0-1.1,0.5-1.1,1.1l0,0c0,0.6,0.5,1.1,1.1,1.1l0,0
					C29.5,3.3,30,2.8,30,2.2L30,2.2 M22.2,2.2C22.2,1,21.2,0,20,0c-1.2,0-2.2,1-2.2,2.2c0,1.2,1,2.2,2.2,2.2l0,0
					C21.2,4.4,22.2,3.5,22.2,2.2C22.2,2.2,22.2,2.2,22.2,2.2 M13.3,11.1c0-1.2-1-2.2-2.2-2.2l0,0c-1.2,0-2.2,1-2.2,2.2
					c0,1.2,1,2.2,2.2,2.2C12.3,13.3,13.3,12.3,13.3,11.1C13.3,11.1,13.3,11.1,13.3,11.1 M12.2,2.2c0-0.6-0.5-1.1-1.1-1.1l0,0
					c-0.6,0-1.1,0.5-1.1,1.1c0,0,0,0,0,0c0,0.6,0.5,1.1,1.1,1.1c0,0,0,0,0,0C11.7,3.3,12.2,2.8,12.2,2.2L12.2,2.2 M4.4,20
					c0-1.2-1-2.2-2.2-2.2C1,17.8,0,18.8,0,20l0,0c0,1.2,1,2.2,2.2,2.2l0,0C3.4,22.2,4.4,21.2,4.4,20 M3.3,11.1
					c0-0.6-0.5-1.1-1.1-1.1l0,0c-0.6,0-1.1,0.5-1.1,1.1l0,0c0,0.6,0.5,1.1,1.1,1.1c0,0,0,0,0,0C2.8,12.2,3.3,11.7,3.3,11.1
					C3.3,11.1,3.3,11.1,3.3,11.1 M1.1,28.9c0,0.6,0.5,1.1,1.1,1.1l0,0c0.6,0,1.1-0.5,1.1-1.1l0,0c0-0.6-0.5-1.1-1.1-1.1l0,0
					C1.6,27.8,1.1,28.3,1.1,28.9L1.1,28.9 M8.9,28.9c0,1.2,1,2.2,2.2,2.2c1.2,0,2.2-1,2.2-2.2c0-1.2-1-2.2-2.2-2.2c0,0,0,0,0,0
					C9.9,26.7,8.9,27.7,8.9,28.9 M10,37.8c0,0.6,0.5,1.1,1.1,1.1c0.6,0,1.1-0.5,1.1-1.1c0,0,0,0,0,0c0-0.6-0.5-1.1-1.1-1.1l0,0
					C10.5,36.7,10,37.2,10,37.8C10,37.8,10,37.8,10,37.8 M17.8,37.8c0,1.2,1,2.2,2.2,2.2c0,0,0,0,0,0c1.2,0,2.2-1,2.2-2.2
					c0,0,0,0,0,0c0-1.2-1-2.2-2.2-2.2c0,0,0,0,0,0C18.8,35.6,17.8,36.6,17.8,37.8L17.8,37.8 M27.8,37.8c0,0.6,0.5,1.1,1.1,1.1
					c0,0,0,0,0,0c0.6,0,1.1-0.5,1.1-1.1c0,0,0,0,0,0c0-0.6-0.5-1.1-1.1-1.1l0,0C28.3,36.7,27.8,37.2,27.8,37.8L27.8,37.8 M36.7,28.9
					c0,0.6,0.5,1.1,1.1,1.1c0,0,0,0,0,0c0.6,0,1.1-0.5,1.1-1.1l0,0c0-0.6-0.5-1.1-1.1-1.1l0,0C37.2,27.8,36.7,28.3,36.7,28.9
					C36.7,28.9,36.7,28.9,36.7,28.9"/>
			</g>
		</g>
	</g>
</g>
</svg>
