<?xml version="1.0" encoding="UTF-8"?>
<svg id="Ebene_1" data-name="Ebene 1" xmlns="http://www.w3.org/2000/svg" version="1.1" viewBox="0 0 50 50">
  <defs>
    <style>
      .cls-1 {
        fill: #fff;
        stroke-width: 0px;
      }
    </style>
  </defs>
  <path class="cls-1" d="M25,50C11.2,50,0,38.8,0,25S11.2,0,25,0s25,11.2,25,25-11.2,25-25,25ZM25,2.5C12.6,2.5,2.5,12.6,2.5,25s10.1,22.5,22.5,22.5,22.5-10.1,22.5-22.5S37.4,2.5,25,2.5Z"/>
  <path class="cls-1" d="M19.2,14.1c-1.2-.7-2.2-.1-2.2,1.2v19.3c0,1.4,1,1.9,2.2,1.2l16.7-9.7c1.2-.7,1.2-1.8,0-2.5l-16.7-9.7Z"/>
</svg>